<svg xmlns="http://www.w3.org/2000/svg" width="1200" height="630" viewBox="0 0 1200 630">
  <rect width="1200" height="630" fill="#f6f5f3"/>
  <rect x="0" y="0" width="1200" height="10" fill="#7a5a3a"/>
  <rect x="0" y="620" width="1200" height="10" fill="#7a5a3a"/>

  <!-- Seal -->
  <g transform="translate(110 205) scale(2.75)">
    <circle cx="40" cy="40" r="36" fill="#0a0a0b"/>
    <circle cx="40" cy="40" r="32" fill="none" stroke="#d4b896" stroke-opacity="0.32" stroke-width="0.8" stroke-dasharray="1.8 1.8"/>
    <path transform="translate(14 29) scale(0.52)" fill="#d4b896" fill-rule="evenodd" d="M12 4Q4 4 4 14L4 30Q4 40 14 40L38 40Q44 40 46 36L50 30L54 36Q56 40 62 40L86 40Q96 40 96 30L96 14Q96 4 88 4ZM22 22A6 7 0 1 0 34 22A6 7 0 1 0 22 22ZM66 22A6 7 0 1 0 78 22A6 7 0 1 0 66 22Z"/>
  </g>

  <!-- Wordmark + tagline -->
  <text x="400" y="285" font-family="Fraunces, Georgia, 'Times New Roman', serif" font-size="92" font-weight="600" fill="#0a0a0b">Budget Bandit</text>
  <rect x="404" y="312" width="150" height="6" fill="#7a5a3a"/>
  <text x="404" y="372" font-family="Inter, Helvetica, Arial, sans-serif" font-size="38" fill="#3a3a3e">The private budget.</text>
  <text x="404" y="430" font-family="Inter, Helvetica, Arial, sans-serif" font-size="23" letter-spacing="5" fill="#7a5a3a">DOCUMENTATION</text>
</svg>
